0
SECTION
2
HEADER
9
$INSUNITS
70
4
9
$ACADVER
1
AC1014
9
$HANDSEED
5
FFFF
0
ENDSEC
0
SECTION
2
TABLES
0
TABLE
2
VPORT
5
8
100
AcDbSymbolTable
0
ENDTAB
0
TABLE
2
LTYPE
5
5
100
AcDbSymbolTable
0
LTYPE
5
14
100
AcDbSymbolTableRecord
100
AcDbLinetypeTableRecord
2
BYBLOCK
70
0
0
LTYPE
5
15
100
AcDbSymbolTableRecord
100
AcDbLinetypeTableRecord
2
BYLAYER
70
0
0
ENDTAB
0
TABLE
2
LAYER
5
2
100
AcDbSymbolTable
70
2
0
LAYER
5
50
100
AcDbSymbolTableRecord
100
AcDbLayerTableRecord
2
0
70
0
6
CONTINUOUS
0
ENDTAB
0
TABLE
2
STYLE
5
3
100
AcDbSymbolTable
70
1
0
STYLE
5
11
100
AcDbSymbolTableRecord
100
AcDbTextStyleTableRecord
2
STANDARD
70
0
0
ENDTAB
0
TABLE
2
VIEW
5
6
100
AcDbSymbolTable
70
0
0
ENDTAB
0
TABLE
2
UCS
5
7
100
AcDbSymbolTable
70
0
0
ENDTAB
0
TABLE
2
APPID
5
9
100
AcDbSymbolTable
70
2
0
APPID
5
12
100
AcDbSymbolTableRecord
100
AcDbRegAppTableRecord
2
ACAD
70
0
0
ENDTAB
0
TABLE
2
DIMSTYLE
5
A
100
AcDbSymbolTable
70
1
0
ENDTAB
0
TABLE
2
BLOCK_RECORD
5
1
100
AcDbSymbolTable
70
1
0
BLOCK_RECORD
5
1F
100
AcDbSymbolTableRecord
100
AcDbBlockTableRecord
2
*MODEL_SPACE
0
BLOCK_RECORD
5
1B
100
AcDbSymbolTableRecord
100
AcDbBlockTableRecord
2
*PAPER_SPACE
0
ENDTAB
0
ENDSEC
0
SECTION
2
BLOCKS
0
BLOCK
5
20
100
AcDbEntity
100
AcDbBlockBegin
2
*MODEL_SPACE
0
ENDBLK
5
21
100
AcDbEntity
100
AcDbBlockEnd
0
BLOCK
5
1C
100
AcDbEntity
100
AcDbBlockBegin
2
*PAPER_SPACE
0
ENDBLK
5
1D
100
AcDbEntity
100
AcDbBlockEnd
0
ENDSEC
0
SECTION
2
ENTITIES
0
SPLINE
5
100
100
AcDbEntity
8
0
100
AcDbSpline
70
0
71
3
72
8
73
4
74
0
42
0.000000001
43
0.0000000001
44
0.0000000001
40
0
40
0
40
0
40
0
40
1
40
1
40
1
40
1
10
-23.379603276475002
20
-93.867873251053012
30
0
10
-22.589365019012
20
-93.878778361263997
30
0
10
-22.702634469284
20
-93.876388224379994
30
0
10
-21.889370088252001
20
-93.883062744319005
30
0
0
SPLINE
5
101
100
AcDbEntity
8
0
100
AcDbSpline
70
0
71
3
72
8
73
4
74
0
42
0.000000001
43
0.0000000001
44
0.0000000001
40
0
40
0
40
0
40
0
40
1
40
1
40
1
40
1
10
-21.889370088252001
20
-93.883062744319005
30
0
10
-19.485549242800001
20
-93.902791076870002
30
0
10
-2.8645610291299999
20
-93.528423147647999
30
0
10
-2.0137164048809999
20
-93.868122126925016
30
0
0
SPLINE
5
102
100
AcDbEntity
8
0
100
AcDbSpline
70
0
71
3
72
8
73
4
74
0
42
0.000000001
43
0.0000000001
44
0.0000000001
40
0
40
0
40
0
40
0
40
1
40
1
40
1
40
1
10
-2.0137164048809999
20
-93.868122126925016
30
0
10
-1.7296364853230002
20
-93.981540788754998
30
0
10
-1.8395027848150003
20
-93.956120811802009
30
0
10
-1.5611630326760002
20
-94.063448289654005
30
0
0
SPLINE
5
103
100
AcDbEntity
8
0
100
AcDbSpline
70
0
71
3
72
8
73
4
74
0
42
0.000000001
43
0.0000000001
44
0.0000000001
40
0
40
0
40
0
40
0
40
1
40
1
40
1
40
1
10
-1.5611630326760002
20
-94.063448289654005
30
0
10
-0.72870117729799999
20
-94.384444592408002
30
0
10
12.028158323140001
20
-93.863442878697015
30
0
10
12.951407041480001
20
-93.618555532100004
30
0
0
SPLINE
5
104
100
AcDbEntity
8
0
100
AcDbSpline
70
0
71
3
72
8
73
4
74
0
42
0.000000001
43
0.0000000001
44
0.0000000001
40
0
40
0
40
0
40
0
40
1
40
1
40
1
40
1
10
12.951407041480001
20
-93.618555532100004
30
0
10
13.26025694176
20
-93.536634559915001
30
0
10
13.138865398900002
20
-93.558076787632999
30
0
10
13.461861358650001
20
-93.469508637828
30
0
0
SPLINE
5
105
100
AcDbEntity
8
0
100
AcDbSpline
70
0
71
3
72
8
73
4
74
0
42
0.000000001
43
0.0000000001
44
0.0000000001
40
0
40
0
40
0
40
0
40
1
40
1
40
1
40
1
10
13.461861358650001
20
-93.469508637828
30
0
10
14.42986569526
20
-93.204073883890999
30
0
10
36.247498053580003
20
-99.821248400007008
30
0
10
40.69859549705
20
-93.948237670577001
30
0
0
SPLINE
5
106
100
AcDbEntity
8
0
100
AcDbSpline
70
0
71
3
72
8
73
4
74
0
42
0.000000001
43
0.0000000001
44
0.0000000001
40
0
40
0
40
0
40
0
40
1
40
1
40
1
40
1
10
40.69859549705
20
-93.948237670577001
30
0
10
42.466328320870005
20
-91.615798542274007
30
0
10
39.319199355489999
20
-88.352821600688003
30
0
10
41.174772206180002
20
-86.575901527843001
30
0
0
SPLINE
5
107
100
AcDbEntity
8
0
100
AcDbSpline
70
0
71
3
72
8
73
4
74
0
42
0.000000001
43
0.0000000001
44
0.0000000001
40
0
40
0
40
0
40
0
40
1
40
1
40
1
40
1
10
41.174772206180002
20
-86.575901527843001
30
0
10
44.717864144970001
20
-83.182991794540001
30
0
10
53.812464382430001
20
-87.527218197100012
30
0
10
56.52469238430001
20
-87.581143730091995
30
0
0
SPLINE
5
108
100
AcDbEntity
8
0
100
AcDbSpline
70
0
71
3
72
8
73
4
74
0
42
0.000000001
43
0.0000000001
44
0.0000000001
40
0
40
0
40
0
40
0
40
1
40
1
40
1
40
1
10
56.52469238430001
20
-87.581143730091995
30
0
10
57.46615139578001
20
-87.59986217078
30
0
10
57.385413589170007
20
-87.596807669070017
30
0
10
58.445165851600009
20
-87.587892945828003
30
0
0
SPLINE
5
109
100
AcDbEntity
8
0
100
AcDbSpline
70
0
71
3
72
8
73
4
74
0
42
0.000000001
43
0.0000000001
44
0.0000000001
40
0
40
0
40
0
40
0
40
1
40
1
40
1
40
1
10
58.445165851600009
20
-87.587892945828003
30
0
10
61.583163388360006
20
-87.561495852312007
30
0
10
79.090451054520003
20
-92.011688957854005
30
0
10
85.713855604460008
20
-85.792273955013002
30
0
0
SPLINE
5
110
100
AcDbEntity
8
0
100
AcDbSpline
70
0
71
3
72
8
73
4
74
0
42
0.000000001
43
0.0000000001
44
0.0000000001
40
0
40
0
40
0
40
0
40
1
40
1
40
1
40
1
10
85.713855604460008
20
-85.792273955013002
30
0
10
90.765356444060004
20
-81.048885585514
30
0
10
88.306419077239994
20
-69.871911052075006
30
0
10
88.460858919950013
20
-65.240187833809998
30
0
0
SPLINE
5
111
100
AcDbEntity
8
0
100
AcDbSpline
70
0
71
3
72
8
73
4
74
0
42
0.000000001
43
0.0000000001
44
0.0000000001
40
0
40
0
40
0
40
0
40
1
40
1
40
1
40
1
10
88.460858919950013
20
-65.240187833809998
30
0
10
88.516883061749994
20
-63.559997581133999
30
0
10
88.418083271960001
20
-63.083847598665002
30
0
10
88.39709870982
20
-61.447265034056997
30
0
0
SPLINE
5
112
100
AcDbEntity
8
0
100
AcDbSpline
70
0
71
3
72
8
73
4
74
0
42
0.000000001
43
0.0000000001
44
0.0000000001
40
0
40
0
40
0
40
0
40
1
40
1
40
1
40
1
10
88.39709870982
20
-61.447265034056997
30
0
10
88.340196455639997
20
-57.009467550006008
30
0
10
88.32182280088
20
-46.994785172447003
30
0
10
88.29318014095
20
-42.578530079824006
30
0
0
SPLINE
5
113
100
AcDbEntity
8
0
100
AcDbSpline
70
0
71
3
72
8
73
4
74
0
42
0.000000001
43
0.0000000001
44
0.0000000001
40
0
40
0
40
0
40
0
40
1
40
1
40
1
40
1
10
88.29318014095
20
-42.578530079824006
30
0
10
88.282635821100001
20
-40.952759067166006
30
0
10
88.280503025659996
20
-40.462466197863009
30
0
10
88.266817681769993
20
-38.820524432931002
30
0
0
SPLINE
5
114
100
AcDbEntity
8
0
100
AcDbSpline
70
0
71
3
72
8
73
4
74
0
42
0.000000001
43
0.0000000001
44
0.0000000001
40
0
40
0
40
0
40
0
40
1
40
1
40
1
40
1
10
88.266817681769993
20
-38.820524432931002
30
0
10
88.229407929390007
20
-34.332172855416005
30
0
10
87.925987092070002
20
-23.841789540038999
30
0
10
88.054951523800014
20
-19.284665420101
30
0
0
SPLINE
5
115
100
AcDbEntity
8
0
100
AcDbSpline
70
0
71
3
72
8
73
4
74
0
42
0.000000001
43
0.0000000001
44
0.0000000001
40
0
40
0
40
0
40
0
40
1
40
1
40
1
40
1
10
88.054951523800014
20
-19.284665420101
30
0
10
88.102377496740004
20
-17.608807648519004
30
0
10
88.213079246740008
20
-17.177921330634
30
0
10
88.245865628689998
20
-15.420322884567002
30
0
0
SPLINE
5
116
100
AcDbEntity
8
0
100
AcDbSpline
70
0
71
3
72
8
73
4
74
0
42
0.000000001
43
0.0000000001
44
0.0000000001
40
0
40
0
40
0
40
0
40
1
40
1
40
1
40
1
10
88.245865628689998
20
-15.420322884567002
30
0
10
88.337453431440011
20
-10.51052283323
30
0
10
90.057609372599998
20
1.9433592260830002
30
0
10
87.156724233250017
20
7.6829004958459999
30
0
0
SPLINE
5
117
100
AcDbEntity
8
0
100
AcDbSpline
70
0
71
3
72
8
73
4
74
0
42
0.000000001
43
0.0000000001
44
0.0000000001
40
0
40
0
40
0
40
0
40
1
40
1
40
1
40
1
10
87.156724233250017
20
7.6829004958459999
30
0
10
85.977679715480008
20
10.015696985040002
30
0
10
83.594062439119995
20
10.32552547759
30
0
10
82.500587372959998
20
12.536666120950002
30
0
0
SPLINE
5
118
100
AcDbEntity
8
0
100
AcDbSpline
70
0
71
3
72
8
73
4
74
0
42
0.000000001
43
0.0000000001
44
0.0000000001
40
0
40
0
40
0
40
0
40
1
40
1
40
1
40
1
10
82.500587372959998
20
12.536666120950002
30
0
10
80.054803764100001
20
17.482340430120004
30
0
10
85.30265036822
20
26.510362580170003
30
0
10
80.978990472150002
20
30.869992779800004
30
0
0
SPLINE
5
119
100
AcDbEntity
8
0
100
AcDbSpline
70
0
71
3
72
8
73
4
74
0
42
0.000000001
43
0.0000000001
44
0.0000000001
40
0
40
0
40
0
40
0
40
1
40
1
40
1
40
1
10
80.978990472150002
20
30.869992779800004
30
0
10
75.611186718829998
20
36.282453498540001
30
0
10
60.39532828678
20
32.842877550430003
30
0
10
58.171177487439998
20
32.903210968350002
30
0
0
SPLINE
5
120
100
AcDbEntity
8
0
100
AcDbSpline
70
0
71
3
72
8
73
4
74
0
42
0.000000001
43
0.0000000001
44
0.0000000001
40
0
40
0
40
0
40
0
40
1
40
1
40
1
40
1
10
58.171177487439998
20
32.903210968350002
30
0
10
57.423293604430008
20
32.923498437570004
30
0
10
57.602077934649998
20
32.922850925730003
30
0
10
56.85764395548
20
32.924996138860003
30
0
0
SPLINE
5
121
100
AcDbEntity
8
0
100
AcDbSpline
70
0
71
3
72
8
73
4
74
0
42
0.000000001
43
0.0000000001
44
0.0000000001
40
0
40
0
40
0
40
0
40
1
40
1
40
1
40
1
10
56.85764395548
20
32.924996138860003
30
0
10
54.645118639810008
20
32.931371906869998
30
0
10
39.993570589720008
20
35.406359194680007
30
0
10
34.794390690219998
20
31.270736312430003
30
0
0
SPLINE
5
122
100
AcDbEntity
8
0
100
AcDbSpline
70
0
71
3
72
8
73
4
74
0
42
0.000000001
43
0.0000000001
44
0.0000000001
40
0
40
0
40
0
40
0
40
1
40
1
40
1
40
1
10
34.794390690219998
20
31.270736312430003
30
0
10
32.46523529692
20
29.4180386703
30
0
10
33.84408385927
20
25.442092369699999
30
0
10
31.48242864657
20
23.854002889510003
30
0
0
SPLINE
5
123
100
AcDbEntity
8
0
100
AcDbSpline
70
0
71
3
72
8
73
4
74
0
42
0.000000001
43
0.0000000001
44
0.0000000001
40
0
40
0
40
0
40
0
40
1
40
1
40
1
40
1
10
31.48242864657
20
23.854002889510003
30
0
10
26.834092385110004
20
20.72824012892
30
0
10
13.911548968350003
20
24.424236464389999
30
0
10
13.783728672390001
20
24.486814190480004
30
0
0
SPLINE
5
124
100
AcDbEntity
8
0
100
AcDbSpline
70
0
71
3
72
8
73
4
74
0
42
0.000000001
43
0.0000000001
44
0.0000000001
40
0
40
0
40
0
40
0
40
1
40
1
40
1
40
1
10
13.783728672390001
20
24.486814190480004
30
0
10
13.74112002763
20
24.507674352639999
30
0
10
13.76166579875
20
24.498010574820004
30
0
10
13.719194109800002
20
24.518807329740003
30
0
0
SPLINE
5
125
100
AcDbEntity
8
0
100
AcDbSpline
70
0
71
3
72
8
73
4
74
0
42
0.000000001
43
0.0000000001
44
0.0000000001
40
0
40
0
40
0
40
0
40
1
40
1
40
1
40
1
10
13.719194109800002
20
24.518807329740003
30
0
10
13.591788032489999
20
24.581193192670003
30
0
10
3.7490647151349998
20
23.748983193720004
30
0
10
-0.161687830024
20
26.363900616590001
30
0
0
SPLINE
5
126
100
AcDbEntity
8
0
100
AcDbSpline
70
0
71
3
72
8
73
4
74
0
42
0.000000001
43
0.0000000001
44
0.0000000001
40
0
40
0
40
0
40
0
40
1
40
1
40
1
40
1
10
-0.161687830024
20
26.363900616590001
30
0
10
-5.9240832790620015
20
30.216915626660001
30
0
10
-5.2060004962409998
20
40.045231972339998
30
0
10
-10.510555551652001
20
44.59181647306
30
0
0
SPLINE
5
127
100
AcDbEntity
8
0
100
AcDbSpline
70
0
71
3
72
8
73
4
74
0
42
0.000000001
43
0.0000000001
44
0.0000000001
40
0
40
0
40
0
40
0
40
1
40
1
40
1
40
1
10
-10.510555551652001
20
44.59181647306
30
0
10
-15.381500275866999
20
48.766749442110005
30
0
10
-25.984055756880998
20
50.815021020150006
30
0
10
-28.502017711426003
20
51.422275313370001
30
0
0
SPLINE
5
128
100
AcDbEntity
8
0
100
AcDbSpline
70
0
71
3
72
8
73
4
74
0
42
0.000000001
43
0.0000000001
44
0.0000000001
40
0
40
0
40
0
40
0
40
1
40
1
40
1
40
1
10
-28.502017711426003
20
51.422275313370001
30
0
10
-29.357842605250003
20
51.628673722250007
30
0
10
-29.304223977593004
20
51.558171733570006
30
0
10
-30.122020859875001
20
51.758783594830007
30
0
0
SPLINE
5
129
100
AcDbEntity
8
0
100
AcDbSpline
70
0
71
3
72
8
73
4
74
0
42
0.000000001
43
0.0000000001
44
0.0000000001
40
0
40
0
40
0
40
0
40
1
40
1
40
1
40
1
10
-30.122020859875001
20
51.758783594830007
30
0
10
-32.503733168084999
20
52.343035931199999
30
0
10
-42.531754624370002
20
55.399494472619999
30
0
10
-44.692170917265997
20
57.178572575990003
30
0
0
SPLINE
5
130
100
AcDbEntity
8
0
100
AcDbSpline
70
0
71
3
72
8
73
4
74
0
42
0.000000001
43
0.0000000001
44
0.0000000001
40
0
40
0
40
0
40
0
40
1
40
1
40
1
40
1
10
-44.692170917265997
20
57.178572575990003
30
0
10
-45.443960998068
20
57.797663107510004
30
0
10
-45.258578719444998
20
57.921203565020001
30
0
10
-46.071972266702005
20
58.628131083260008
30
0
0
SPLINE
5
131
100
AcDbEntity
8
0
100
AcDbSpline
70
0
71
3
72
8
73
4
74
0
42
0.000000001
43
0.0000000001
44
0.0000000001
40
0
40
0
40
0
40
0
40
1
40
1
40
1
40
1
10
-46.071972266702005
20
58.628131083260008
30
0
10
-48.470568027594005
20
60.712771850600006
30
0
10
-61.978142143811006
20
69.073318868070004
30
0
10
-69.701424078138004
20
66.134276637439996
30
0
0
SPLINE
5
132
100
AcDbEntity
8
0
100
AcDbSpline
70
0
71
3
72
8
73
4
74
0
42
0.000000001
43
0.0000000001
44
0.0000000001
40
0
40
0
40
0
40
0
40
1
40
1
40
1
40
1
10
-69.701424078138004
20
66.134276637439996
30
0
10
-76.765165682076002
20
63.446217978349999
30
0
10
-79.601128997730996
20
49.976708588730006
30
0
10
-81.28215131496502
20
46.643408775129998
30
0
0
SPLINE
5
133
100
AcDbEntity
8
0
100
AcDbSpline
70
0
71
3
72
8
73
4
74
0
42
0.000000001
43
0.0000000001
44
0.0000000001
40
0
40
0
40
0
40
0
40
1
40
1
40
1
40
1
10
-81.28215131496502
20
46.643408775129998
30
0
10
-81.861507076869998
20
45.494604007130008
30
0
10
-81.874114548329004
20
45.451857992300006
30
0
10
-82.384171445389995
20
44.329447203400001
30
0
0
SPLINE
5
134
100
AcDbEntity
8
0
100
AcDbSpline
70
0
71
3
72
8
73
4
74
0
42
0.000000001
43
0.0000000001
44
0.0000000001
40
0
40
0
40
0
40
0
40
1
40
1
40
1
40
1
10
-82.384171445389995
20
44.329447203400001
30
0
10
-83.843990995313007
20
41.117026741830003
30
0
10
-87.828995682482002
20
30.678469305650005
30
0
10
-89.435335038177016
20
26.677901679960002
30
0
0
SPLINE
5
135
100
AcDbEntity
8
0
100
AcDbSpline
70
0
71
3
72
8
73
4
74
0
42
0.000000001
43
0.0000000001
44
0.0000000001
40
0
40
0
40
0
40
0
40
1
40
1
40
1
40
1
10
-89.435335038177016
20
26.677901679960002
30
0
10
-90.020586851356001
20
25.220339522629999
30
0
10
-90.216409762655005
20
24.924402735690002
30
0
10
-90.768901837878019
20
23.36545747025
30
0
0
SPLINE
5
136
100
AcDbEntity
8
0
100
AcDbSpline
70
0
71
3
72
8
73
4
74
0
42
0.000000001
43
0.0000000001
44
0.0000000001
40
0
40
0
40
0
40
0
40
1
40
1
40
1
40
1
10
-90.768901837878019
20
23.36545747025
30
0
10
-92.326321862366001
20
18.970946340859999
30
0
10
-99.26117932446401
20
8.1810657519660008
30
0
10
-96.316030870165008
20
1.1341051509490003
30
0
0
SPLINE
5
137
100
AcDbEntity
8
0
100
AcDbSpline
70
0
71
3
72
8
73
4
74
0
42
0.000000001
43
0.0000000001
44
0.0000000001
40
0
40
0
40
0
40
0
40
1
40
1
40
1
40
1
10
-96.316030870165008
20
1.1341051509490003
30
0
10
-93.439080215336006
20
-5.7496761694959986
30
0
10
-79.950344890207006
20
-8.6690943953549997
30
0
10
-77.055939158873002
20
-10.268388845104999
30
0
0
SPLINE
5
138
100
AcDbEntity
8
0
100
AcDbSpline
70
0
71
3
72
8
73
4
74
0
42
0.000000001
43
0.0000000001
44
0.0000000001
40
0
40
0
40
0
40
0
40
1
40
1
40
1
40
1
10
-77.055939158873002
20
-10.268388845104999
30
0
10
-76.066860020506994
20
-10.814901298155
30
0
10
-76.054542650879995
20
-10.921792955567
30
0
10
-75.141065738335996
20
-11.305382585638
30
0
0
SPLINE
5
139
100
AcDbEntity
8
0
100
AcDbSpline
70
0
71
3
72
8
73
4
74
0
42
0.000000001
43
0.0000000001
44
0.0000000001
40
0
40
0
40
0
40
0
40
1
40
1
40
1
40
1
10
-75.141065738335996
20
-11.305382585638
30
0
10
-72.587587793802996
20
-12.377645766773
30
0
10
-63.663893705730999
20
-9.5637917430700004
30
0
10
-62.279988440095011
20
-13.699259655721001
30
0
0
SPLINE
5
140
100
AcDbEntity
8
0
100
AcDbSpline
70
0
71
3
72
8
73
4
74
0
42
0.000000001
43
0.0000000001
44
0.0000000001
40
0
40
0
40
0
40
0
40
1
40
1
40
1
40
1
10
-62.279988440095011
20
-13.699259655721001
30
0
10
-60.789252732803007
20
-18.153964639386999
30
0
10
-69.998906263181993
20
-19.734535707247002
30
0
10
-71.794330557552996
20
-24.096277112505003
30
0
0
SPLINE
5
141
100
AcDbEntity
8
0
100
AcDbSpline
70
0
71
3
72
8
73
4
74
0
42
0.000000001
43
0.0000000001
44
0.0000000001
40
0
40
0
40
0
40
0
40
1
40
1
40
1
40
1
10
-71.794330557552996
20
-24.096277112505003
30
0
10
-74.251038658029998
20
-30.064518422421003
30
0
10
-72.805221266952003
20
-39.033498169614006
30
0
10
-72.511679635785001
20
-43.524164605353008
30
0
0
SPLINE
5
142
100
AcDbEntity
8
0
100
AcDbSpline
70
0
71
3
72
8
73
4
74
0
42
0.000000001
43
0.0000000001
44
0.0000000001
40
0
40
0
40
0
40
0
40
1
40
1
40
1
40
1
10
-72.511679635785001
20
-43.524164605353008
30
0
10
-72.404027888620007
20
-45.171045444083006
30
0
10
-72.240449352553995
20
-45.660333586493003
30
0
10
-72.059348940085002
20
-47.289486009360999
30
0
0
SPLINE
5
143
100
AcDbEntity
8
0
100
AcDbSpline
70
0
71
3
72
8
73
4
74
0
42
0.000000001
43
0.0000000001
44
0.0000000001
40
0
40
0
40
0
40
0
40
1
40
1
40
1
40
1
10
-72.059348940085002
20
-47.289486009360999
30
0
10
-71.567692341058006
20
-51.712355778701003
30
0
10
-71.227300390772996
20
-61.736495349816998
30
0
10
-70.270267410765001
20
-66.187162658915994
30
0
0
SPLINE
5
144
100
AcDbEntity
8
0
100
AcDbSpline
70
0
71
3
72
8
73
4
74
0
42
0.000000001
43
0.0000000001
44
0.0000000001
40
0
40
0
40
0
40
0
40
1
40
1
40
1
40
1
10
-70.270267410765001
20
-66.187162658915994
30
0
10
-69.914721806103003
20
-67.840622082590002
30
0
10
-69.693239495146003
20
-68.327332463315997
30
0
10
-69.184139882248004
20
-69.997644023703003
30
0
0
SPLINE
5
145
100
AcDbEntity
8
0
100
AcDbSpline
70
0
71
3
72
8
73
4
74
0
42
0.000000001
43
0.0000000001
44
0.0000000001
40
0
40
0
40
0
40
0
40
1
40
1
40
1
40
1
10
-69.184139882248004
20
-69.997644023703003
30
0
10
-67.785241116248017
20
-74.587309231578004
30
0
10
-67.691617023101003
20
-85.51809945531501
30
0
10
-62.277285621464998
20
-90.076906636998018
30
0
0
SPLINE
5
146
100
AcDbEntity
8
0
100
AcDbSpline
70
0
71
3
72
8
73
4
74
0
42
0.000000001
43
0.0000000001
44
0.0000000001
40
0
40
0
40
0
40
0
40
1
40
1
40
1
40
1
10
-62.277285621464998
20
-90.076906636998018
30
0
10
-57.003598532349997
20
-94.517292862439021
30
0
10
-44.224192744674006
20
-93.285061640231021
30
0
10
-41.859679006118
20
-93.375184639850005
30
0
0
SPLINE
5
147
100
AcDbEntity
8
0
100
AcDbSpline
70
0
71
3
72
8
73
4
74
0
42
0.000000001
43
0.0000000001
44
0.0000000001
40
0
40
0
40
0
40
0
40
1
40
1
40
1
40
1
10
-41.859679006118
20
-93.375184639850005
30
0
10
-41.061239077418001
20
-93.405617028639995
30
0
10
-41.184561341121999
20
-93.381565967398004
30
0
10
-40.412976024861003
20
-93.393804294836997
30
0
0
SPLINE
5
148
100
AcDbEntity
8
0
100
AcDbSpline
70
0
71
3
72
8
73
4
74
0
42
0.000000001
43
0.0000000001
44
0.0000000001
40
0
40
0
40
0
40
0
40
1
40
1
40
1
40
1
10
-40.412976024861003
20
-93.393804294836997
30
0
10
-38.141778715363998
20
-93.429828381568001
30
0
10
-25.703045322335999
20
-93.835810273413998
30
0
10
-23.379603276475002
20
-93.867873251053012
30
0
0
CIRCLE
5
149
100
AcDbEntity
8
0
100
AcDbCircle
10
-50.475916748214004
20
-84.034918421073002
30
0
40
1.7000000000000002
210
0
220
0
230
1
0
CIRCLE
5
150
100
AcDbEntity
8
0
100
AcDbCircle
10
70.435553490350003
20
-79.129802551271993
30
0
40
2.1500000000000012
210
0
220
-0
230
1
0
CIRCLE
5
151
100
AcDbEntity
8
0
100
AcDbCircle
10
-59.867745372976003
20
-20.890750956262
30
0
40
2.1500000000000004
210
0
220
-0
230
1
0
CIRCLE
5
152
100
AcDbEntity
8
0
100
AcDbCircle
10
-78.392917620774
20
32.352323447739998
30
0
40
2.1499999999999999
210
0
220
-0
230
1
0
CIRCLE
5
153
100
AcDbEntity
8
0
100
AcDbCircle
10
-31.538897755052005
20
43.765046146320003
30
0
40
2.1499999999999999
210
0
220
-0
230
1
0
CIRCLE
5
154
100
AcDbEntity
8
0
100
AcDbCircle
10
47.172739235229997
20
24.340871688480004
30
0
40
2.1499999999999999
210
0
220
-0
230
1
0
ENDSEC
0
SECTION
2
OBJECTS
0
DICTIONARY
5
C
100
AcDbDictionary
3
ACAD_GROUP
350
D
3
ACAD_MLINESTYLE
350
17
0
DICTIONARY
5
D
100
AcDbDictionary
0
DICTIONARY
5
1A
330
C
100
AcDbDictionary
0
DICTIONARY
5
17
100
AcDbDictionary
0
ENDSEC
0
EOF
